<svg width="23" height="18" viewBox="0 0 23 18" fill="none" xmlns="http://www.w3.org/2000/svg">
<path d="M10.5769 14.4853L16.2338 8.82843C16.4341 8.62808 16.6698 8.52814 16.9409 8.52861C17.2119 8.52909 17.4476 8.62902 17.648 8.82843C17.8483 9.02877 17.9483 9.26448 17.9478 9.53553C17.9473 9.80659 17.8474 10.0423 17.648 10.2426L11.284 16.6066C11.0837 16.8069 10.8477 16.9071 10.5762 16.9071C10.3047 16.9071 10.0692 16.8069 9.86981 16.6066L3.50585 10.2426C3.3055 10.0423 3.20533 9.80636 3.20533 9.53483C3.20533 9.2633 3.3055 9.02783 3.50585 8.82843C3.7062 8.62808 3.9419 8.52814 4.21296 8.52861C4.48401 8.52909 4.71972 8.62902 4.92006 8.82843L10.5769 14.4853ZM10.5769 7.41421L16.2338 1.75736C16.4341 1.55701 16.6698 1.45707 16.9409 1.45755C17.2119 1.45802 17.4476 1.55796 17.648 1.75736C17.8483 1.95771 17.9483 2.19341 17.9478 2.46447C17.9473 2.73552 17.8474 2.97123 17.648 3.17157L11.284 9.53553C11.0837 9.73588 10.8477 9.83605 10.5762 9.83605C10.3047 9.83605 10.0692 9.73588 9.86981 9.53553L3.50585 3.17157C3.3055 2.97123 3.20533 2.73529 3.20533 2.46376C3.20533 2.19223 3.3055 1.95676 3.50585 1.75736C3.7062 1.55701 3.9419 1.45707 4.21296 1.45755C4.48401 1.45802 4.71972 1.55796 4.92006 1.75736L10.5769 7.41421Z" fill="#42412D"/>
</svg>
